<svg width="24" height="24" viewBox="0 0 24 24" fill="none" xmlns="http://www.w3.org/2000/svg">
<path fill-rule="evenodd" clip-rule="evenodd" d="M12 22.75C6.07 22.75 1.25 17.93 1.25 12C1.25 6.07 6.07 1.25 12 1.25C17.93 1.25 22.75 6.07 22.75 12C22.75 17.93 17.93 22.75 12 22.75ZM12 2.75C6.9 2.75 2.75 6.9 2.75 12C2.75 17.1 6.9 21.25 12 21.25C17.1 21.25 21.25 17.1 21.25 12C21.25 6.9 17.1 2.75 12 2.75ZM12 16.25C11.59 16.25 11.25 15.91 11.25 15.5V10.3099L9.52994 12.0299C9.23994 12.3199 8.75994 12.3199 8.46994 12.0299C8.17994 11.7399 8.17994 11.2599 8.46994 10.9699L11.4699 7.96994C11.7599 7.67994 12.2399 7.67994 12.5299 7.96994L15.5299 10.9699C15.8199 11.2599 15.8199 11.7399 15.5299 12.0299C15.3799 12.1799 15.1899 12.2499 14.9999 12.2499C14.8099 12.2499 14.6199 12.1799 14.4699 12.0299L12.75 10.31V15.5C12.75 15.91 12.41 16.25 12 16.25Z" fill="#3D404A"/>
</svg>
