<svg width="24" height="24" viewBox="0 0 24 24" fill="none" xmlns="http://www.w3.org/2000/svg">
<path fill-rule="evenodd" clip-rule="evenodd" d="M12 22.75C6.07 22.75 1.25 17.93 1.25 12C1.25 6.07 6.07 1.25 12 1.25C17.93 1.25 22.75 6.07 22.75 12C22.75 17.93 17.93 22.75 12 22.75ZM12 2.75C6.9 2.75 2.75 6.9 2.75 12C2.75 17.1 6.9 21.25 12 21.25C17.1 21.25 21.25 17.1 21.25 12C21.25 6.9 17.1 2.75 12 2.75ZM12.75 13.6899V8.5C12.75 8.09 12.41 7.75 12 7.75C11.59 7.75 11.25 8.09 11.25 8.5V13.69L9.52994 11.9699C9.23994 11.6799 8.75994 11.6799 8.46994 11.9699C8.17994 12.2599 8.17994 12.7399 8.46994 13.0299L11.4699 16.0299C11.6199 16.1799 11.8099 16.2499 11.9999 16.2499C12.1899 16.2499 12.3799 16.1799 12.5299 16.0299L15.5299 13.0299C15.8199 12.7399 15.8199 12.2599 15.5299 11.9699C15.2399 11.6799 14.7599 11.6799 14.4699 11.9699L12.75 13.6899Z" fill="#3D404A"/>
</svg>
