<?xml version="1.0" encoding="UTF-8" standalone="no"?>
<!DOCTYPE svg PUBLIC "-//W3C//DTD SVG 1.1//EN" "http://www.w3.org/Graphics/SVG/1.1/DTD/svg11.dtd">
<svg width="100%" height="100%" viewBox="0 0 512 512" version="1.1" xmlns="http://www.w3.org/2000/svg" xmlns:xlink="http://www.w3.org/1999/xlink" xml:space="preserve" style="fill-rule:evenodd;clip-rule:evenodd;stroke-linejoin:round;stroke-miterlimit:1.41421;">
    <g>
        <circle cx="256" cy="256" r="256" style="fill:white;"/>
        <path d="M295.614,508.947C407.371,491.586 495.211,401.941 509.845,289.306L389.691,169.151L370.023,192.867L295.792,118.636L197.29,230.617L183.669,216.996L129.47,238.32L243.811,352.662L184.888,398.223L295.614,508.947Z" style="fill:rgb(241,241,241);fill-rule:nonzero;"/>
        <path d="M341.333,142.222C332.741,142.222 324.601,144.137 317.298,147.547C307.951,122.78 284.039,105.158 255.999,105.158C227.96,105.158 204.047,122.78 194.7,147.547C187.398,144.137 179.257,142.222 170.665,142.222C139.247,142.222 113.776,167.693 113.776,199.111C113.776,230.529 139.248,256 170.667,256C175.582,256 180.34,255.347 184.889,254.174L184.889,398.222L327.111,398.222L327.111,254.174C331.66,255.346 336.418,256 341.333,256C372.751,256 398.222,230.529 398.222,199.111C398.222,167.693 372.752,142.222 341.333,142.222Z" style="fill:rgb(38,50,56);fill-rule:nonzero;"/>
        <g>
            <path d="M341.333,142.222C332.741,142.222 324.601,144.137 317.298,147.547C307.951,122.78 284.039,105.158 255.999,105.158C255.806,105.158 255.616,105.168 255.425,105.17L255.425,398.222L327.11,398.222L327.11,254.174C331.659,255.346 336.417,256 341.332,256C372.75,256 398.221,230.529 398.221,199.111C398.221,167.693 372.752,142.222 341.333,142.222Z" style="fill:rgb(35,45,50);fill-rule:nonzero;"/>
            <rect x="184.889" y="369.778" width="142.222" height="28.444" style="fill:rgb(208,209,211);"/>
        </g>
        <rect x="255.431" y="369.778" width="71.685" height="28.444" style="fill:rgb(166,168,170);"/>
    </g>
    <g>
        <circle cx="256" cy="256" r="256" style="fill:rgb(38,50,56);"/>
        <path d="M295.614,508.947C407.371,491.586 495.211,401.941 509.845,289.306L389.691,169.151L370.023,192.867L295.792,118.636L197.29,230.617L183.669,216.996L129.47,238.32L243.811,352.662L184.888,398.223L295.614,508.947Z" style="fill:rgb(35,45,50);fill-rule:nonzero;"/>
        <path d="M341.333,142.222C332.741,142.222 324.601,144.137 317.298,147.547C307.951,122.78 284.039,105.158 255.999,105.158C227.96,105.158 204.047,122.78 194.7,147.547C187.398,144.137 179.257,142.222 170.665,142.222C139.247,142.222 113.776,167.693 113.776,199.111C113.776,230.529 139.248,256 170.667,256C175.582,256 180.34,255.347 184.889,254.174L184.889,398.222L327.111,398.222L327.111,254.174C331.66,255.346 336.418,256 341.333,256C372.751,256 398.222,230.529 398.222,199.111C398.222,167.693 372.752,142.222 341.333,142.222Z" style="fill:white;fill-rule:nonzero;"/>
        <g>
            <path d="M341.333,142.222C332.741,142.222 324.601,144.137 317.298,147.547C307.951,122.78 284.039,105.158 255.999,105.158C255.806,105.158 255.616,105.168 255.425,105.17L255.425,398.222L327.11,398.222L327.11,254.174C331.659,255.346 336.417,256 341.332,256C372.75,256 398.221,230.529 398.221,199.111C398.221,167.693 372.752,142.222 341.333,142.222Z" style="fill:rgb(243,243,243);fill-rule:nonzero;"/>
            <rect x="184.889" y="369.778" width="142.222" height="28.444" style="fill:rgb(208,209,211);"/>
        </g>
        <rect x="255.431" y="369.778" width="71.685" height="28.444" style="fill:rgb(166,168,170);"/>
    </g>
</svg>
